<?xml version="1.0" standalone="no"?>
<!DOCTYPE svg PUBLIC "-//W3C//DTD SVG 20010904//EN"
 "http://www.w3.org/TR/2001/REC-SVG-20010904/DTD/svg10.dtd">
<svg version="1.0" xmlns="http://www.w3.org/2000/svg"
 width="700.000000pt" height="700.000000pt" viewBox="0 0 700.000000 700.000000"
 preserveAspectRatio="xMidYMid meet">
<metadata>
Created by potrace 1.14, written by Peter Selinger 2001-2017
</metadata>
<g transform="translate(0.000000,700.000000) scale(0.100000,-0.100000)"
fill="#000000" stroke="none">
<path d="M1608 5413 c27 -43 304 -491 616 -995 l568 -918 -614 -992 -615 -993
969 -3 c532 -1 1404 -1 1936 0 l969 3 -615 993 -614 992 568 918 c312 504 589
952 616 995 l48 77 -1940 0 -1940 0 48 -77z m3439 -146 c-14 -37 -961 -1556
-967 -1552 -4 2 -135 211 -291 464 -156 253 -286 460 -289 460 -3 0 -133 -206
-289 -459 -156 -253 -287 -462 -291 -465 -6 -4 -953 1515 -967 1552 -4 11 278
13 1547 13 1284 0 1551 -2 1547 -13z m-1319 -1396 c122 -197 222 -364 222
-371 0 -14 -442 -730 -450 -730 -8 0 -450 716 -450 730 0 14 442 730 450 730
3 0 105 -162 228 -359z m-517 -1051 c156 -253 286 -459 289 -459 3 0 133 207
289 460 156 253 287 462 291 464 6 4 953 -1515 967 -1552 4 -11 -263 -13
-1547 -13 -1269 0 -1551 2 -1547 13 14 37 961 1556 967 1552 4 -3 135 -212
291 -465z"/>
</g>
</svg>
