<svg width="100%" viewBox="0 0 24 24" fill="none" style="opacity: 0.8" xmlns="http://www.w3.org/2000/svg">
<path d="M5 20L10.3333 5H13.6667L19 20H15.8333L14.6667 16.6667H9.33333L8.16667 20H5ZM10.0833 14.4167H13.9167L12 8.33333L10.0833 14.4167Z" fill="#fed7aa"/>
<g clip-path="url(#clip0_3_26)">
<path d="M18 2.95175C17.6854 2.63707 17.4712 2.23621 17.3844 1.79982C17.2976 1.36344 17.3421 0.911111 17.5122 0.5C17.0271 0.595513 16.5814 0.833578 16.2322 1.18375C15.256 2.16 15.256 3.743 16.2322 4.71925C17.2087 5.69575 18.7915 5.6955 19.768 4.71925C20.1181 4.37013 20.3561 3.92457 20.4517 3.4395C20.0406 3.60964 19.5883 3.65411 19.1519 3.56729C18.7156 3.48048 18.3147 3.26628 18 2.95175V2.95175Z" fill="#fed7aa"/>
</g>
</svg>
