<svg width="100%" viewBox="0 0 24 24" fill="none" xmlns="http://www.w3.org/2000/svg">
<path d="M5 20L10.3333 5H13.6667L19 20H15.8333L14.6667 16.6667H9.33333L8.16667 20H5ZM10.0833 14.4167H13.9167L12 8.33333L10.0833 14.4167Z" fill="#fed7aa"/>
<g clip-path="url(#clip0_1_10)">
<path d="M17.4 1.75C17.0685 1.75 16.7506 1.8817 16.5161 2.11612C16.2817 2.35054 16.15 2.66848 16.15 3C16.15 3.33152 16.2817 3.64946 16.5161 3.88388C16.7506 4.1183 17.0685 4.25 17.4 4.25C17.7315 4.25 18.0495 4.1183 18.2839 3.88388C18.5183 3.64946 18.65 3.33152 18.65 3C18.65 2.66848 18.5183 2.35054 18.2839 2.11612C18.0495 1.8817 17.7315 1.75 17.4 1.75V1.75Z" fill="#fed7aa"/>
<path fill-rule="evenodd" clip-rule="evenodd" d="M17.4 0.25C17.4663 0.25 17.5299 0.276339 17.5768 0.323223C17.6237 0.370107 17.65 0.433696 17.65 0.5V0.75C17.65 0.816304 17.6237 0.879893 17.5768 0.926777C17.5299 0.973661 17.4663 1 17.4 1C17.3337 1 17.2701 0.973661 17.2232 0.926777C17.1764 0.879893 17.15 0.816304 17.15 0.75V0.5C17.15 0.433696 17.1764 0.370107 17.2232 0.323223C17.2701 0.276339 17.3337 0.25 17.4 0.25V0.25ZM15.2233 0.82325C15.2702 0.776382 15.3337 0.750053 15.4 0.750053C15.4663 0.750053 15.5299 0.776382 15.5768 0.82325L15.9518 1.19825C15.9973 1.2454 16.0225 1.30855 16.0219 1.3741C16.0214 1.43965 15.9951 1.50235 15.9487 1.5487C15.9024 1.59506 15.8397 1.62135 15.7741 1.62192C15.7086 1.62249 15.6454 1.59729 15.5983 1.55175L15.2233 1.17675C15.1764 1.12987 15.1501 1.06629 15.1501 1C15.1501 0.933709 15.1764 0.870132 15.2233 0.82325V0.82325ZM19.5768 0.82325C19.6236 0.870132 19.65 0.933709 19.65 1C19.65 1.06629 19.6236 1.12987 19.5768 1.17675L19.2018 1.55175C19.1787 1.57563 19.1511 1.59467 19.1206 1.60778C19.0901 1.62088 19.0573 1.62777 19.0241 1.62806C18.9909 1.62835 18.958 1.62203 18.9273 1.60946C18.8966 1.59689 18.8686 1.57832 18.8452 1.55485C18.8217 1.53138 18.8031 1.50346 18.7906 1.47274C18.778 1.44201 18.7717 1.40909 18.772 1.3759C18.7723 1.3427 18.7791 1.3099 18.7922 1.2794C18.8054 1.2489 18.8244 1.22131 18.8483 1.19825L19.2233 0.82325C19.2702 0.776382 19.3337 0.750053 19.4 0.750053C19.4663 0.750053 19.5299 0.776382 19.5768 0.82325ZM14.65 3C14.65 2.9337 14.6764 2.87011 14.7232 2.82322C14.7701 2.77634 14.8337 2.75 14.9 2.75H15.15C15.2163 2.75 15.2799 2.77634 15.3268 2.82322C15.3737 2.87011 15.4 2.9337 15.4 3C15.4 3.0663 15.3737 3.12989 15.3268 3.17678C15.2799 3.22366 15.2163 3.25 15.15 3.25H14.9C14.8337 3.25 14.7701 3.22366 14.7232 3.17678C14.6764 3.12989 14.65 3.0663 14.65 3ZM19.4 3C19.4 2.9337 19.4264 2.87011 19.4732 2.82322C19.5201 2.77634 19.5837 2.75 19.65 2.75H19.9C19.9663 2.75 20.0299 2.77634 20.0768 2.82322C20.1237 2.87011 20.15 2.9337 20.15 3C20.15 3.0663 20.1237 3.12989 20.0768 3.17678C20.0299 3.22366 19.9663 3.25 19.9 3.25H19.65C19.5837 3.25 19.5201 3.22366 19.4732 3.17678C19.4264 3.12989 19.4 3.0663 19.4 3ZM15.9518 4.44825C15.9986 4.49513 16.025 4.55871 16.025 4.625C16.025 4.69129 15.9986 4.75487 15.9518 4.80175L15.5768 5.17675C15.5296 5.22229 15.4665 5.24749 15.4009 5.24692C15.3354 5.24635 15.2727 5.22006 15.2263 5.1737C15.18 5.12735 15.1537 5.06465 15.1531 4.9991C15.1525 4.93355 15.1777 4.8704 15.2233 4.82325L15.5983 4.44825C15.6452 4.40138 15.7087 4.37505 15.775 4.37505C15.8413 4.37505 15.9049 4.40138 15.9518 4.44825V4.44825ZM18.8483 4.44825C18.8952 4.40138 18.9587 4.37505 19.025 4.37505C19.0913 4.37505 19.1549 4.40138 19.2018 4.44825L19.5768 4.82325C19.6223 4.8704 19.6475 4.93355 19.6469 4.9991C19.6464 5.06465 19.6201 5.12735 19.5737 5.1737C19.5274 5.22006 19.4647 5.24635 19.3991 5.24692C19.3336 5.24749 19.2704 5.22229 19.2233 5.17675L18.8483 4.80175C18.8014 4.75487 18.7751 4.69129 18.7751 4.625C18.7751 4.55871 18.8014 4.49513 18.8483 4.44825ZM17.4 5C17.4663 5 17.5299 5.02634 17.5768 5.07322C17.6237 5.12011 17.65 5.1837 17.65 5.25V5.5C17.65 5.5663 17.6237 5.62989 17.5768 5.67678C17.5299 5.72366 17.4663 5.75 17.4 5.75C17.3337 5.75 17.2701 5.72366 17.2232 5.67678C17.1764 5.62989 17.15 5.5663 17.15 5.5V5.25C17.15 5.1837 17.1764 5.12011 17.2232 5.07322C17.2701 5.02634 17.3337 5 17.4 5V5Z" fill="#fed7aa"/>
</g>
</svg>
