<?xml version="1.0" standalone="no"?>
<!DOCTYPE svg PUBLIC "-//W3C//DTD SVG 20010904//EN"
 "http://www.w3.org/TR/2001/REC-SVG-20010904/DTD/svg10.dtd">
<svg version="1.0" xmlns="http://www.w3.org/2000/svg"
 width="700.000000pt" height="700.000000pt" viewBox="0 0 700.000000 700.000000"
 preserveAspectRatio="xMidYMid meet">
<metadata>
Created by potrace 1.14, written by Peter Selinger 2001-2017
</metadata>
<g transform="translate(0.000000,700.000000) scale(0.100000,-0.100000)"
fill="#000000" stroke="none">
<path d="M1480 5825 c0 -3 47 -85 104 -183 105 -181 208 -358 484 -837 85
-148 166 -287 179 -307 12 -21 23 -39 23 -42 0 -3 147 -259 170 -296 14 -22
69 -118 97 -170 14 -25 28 -49 33 -55 4 -5 19 -30 32 -55 14 -25 49 -85 78
-135 29 -49 62 -108 75 -130 12 -22 32 -57 44 -77 l22 -37 -24 -43 c-14 -24
-109 -189 -212 -368 -104 -179 -196 -338 -205 -355 -9 -16 -102 -176 -205
-355 -104 -179 -245 -424 -315 -545 -70 -121 -171 -296 -225 -390 -54 -93
-103 -179 -109 -190 -6 -11 -19 -31 -28 -44 -10 -13 -18 -28 -18 -32 0 -5 890
-9 2020 -9 1111 0 2020 2 2020 4 0 2 -54 98 -121 213 -67 114 -131 226 -144
248 -12 22 -48 85 -80 140 -359 620 -617 1067 -634 1099 -12 21 -77 133 -145
250 -67 116 -143 248 -169 293 l-47 83 58 102 c32 57 85 148 117 203 32 55
101 174 153 265 52 91 203 352 335 580 132 228 249 431 260 450 51 91 363 631
388 673 16 26 29 49 29 52 0 3 -909 5 -2020 5 -1111 0 -2020 -2 -2020 -5z
m3385 -383 c-3 -8 -99 -178 -214 -376 -115 -199 -218 -377 -229 -396 -31 -56
-238 -414 -315 -545 -38 -66 -81 -140 -95 -165 -14 -25 -31 -53 -38 -63 -15
-23 8 -58 -199 303 -87 151 -174 302 -194 335 -20 33 -45 77 -56 98 -11 20
-22 37 -25 37 -3 0 -48 -75 -100 -166 -52 -92 -106 -185 -119 -208 -13 -22
-44 -77 -70 -121 -26 -44 -50 -87 -54 -95 -4 -8 -16 -28 -26 -45 -11 -16 -29
-48 -40 -70 -12 -22 -29 -51 -39 -64 l-19 -23 -53 93 c-29 52 -61 109 -72 127
-40 70 -56 99 -87 150 -17 29 -31 57 -31 62 0 6 -4 10 -8 10 -4 0 -13 12 -19
28 -7 15 -18 36 -25 47 -23 34 -54 88 -93 160 -21 39 -44 77 -51 86 -8 8 -14
18 -14 21 0 5 -103 186 -130 228 -5 8 -18 31 -29 50 -10 19 -80 140 -155 269
-75 128 -134 237 -131 241 2 4 619 7 1370 7 1213 0 1365 -2 1360 -15z m-1347
-1544 c17 -34 73 -132 82 -143 4 -5 17 -26 27 -45 11 -19 37 -66 59 -103 21
-38 44 -77 50 -88 10 -17 0 -40 -65 -152 -43 -73 -97 -167 -122 -209 -24 -43
-46 -78 -49 -78 -5 0 -27 37 -96 160 -17 30 -57 99 -88 152 -31 53 -56 102
-56 107 0 14 233 421 241 421 3 0 11 -10 17 -22z m-437 -846 c17 -31 40 -70
49 -87 9 -16 82 -142 162 -280 79 -137 158 -274 174 -302 16 -29 31 -53 34
-53 3 1 24 33 46 73 23 40 109 190 192 333 83 144 163 284 178 310 40 73 45
78 59 57 9 -14 359 -620 455 -788 10 -16 31 -53 47 -81 17 -27 41 -70 55 -95
14 -24 82 -142 152 -263 139 -240 186 -323 186 -329 0 -6 -2723 -6 -2732 0 -9
5 8 40 67 138 23 39 54 90 67 115 14 25 67 117 118 205 83 143 150 259 229
396 14 25 64 111 111 192 108 187 89 155 204 354 54 95 102 171 106 168 5 -3
23 -31 41 -63z"/>
</g>
</svg>
