<svg xmlns="http://www.w3.org/2000/svg" viewBox="0 0 1000 1000">
  <g transform="matrix(1.2755102040816326,0,0,1.2755102040816326,0,66.96428571428572)">
    <path fill-rule="evenodd" clip-rule="evenodd" fill="#FEFCE8" d="M503.077 594.089C470.165 583.363 435.049 577.459 397.543 576.558L456.68 678.992H552.093L503.077 594.089ZM348.621 240.409L371.459 200.847L391.992 165.275L586.753 502.631C526.542 475.236 461.243 461.179 391.992 460.45C322.734 461.179 257.442 475.236 197.231 502.631L276.039 366.114L314.76 433.189C340.068 429.292 365.736 427.253 391.639 426.979H391.992H392.345C397.167 427.034 401.98 427.144 406.786 427.316L323.745 283.477L276.039 200.839L228.332 283.477L0 679H95.4128C179.12 587.111 278.743 544.114 392 543.001C505.257 544.122 604.88 587.119 688.587 679H784.008L392 0L323.753 118.209L300.915 157.772L348.621 240.409Z" />
  </g>
</svg>
