<svg xmlns="http://www.w3.org/2000/svg" version="1.1" xmlns:xlink="http://www.w3.org/1999/xlink" width="1000" height="1000"><style>
    #light-icon {
      display: inline;
    }
    #dark-icon {
      display: none;
    }

    @media (prefers-color-scheme: dark) {
      #light-icon {
        display: none;
      }
      #dark-icon {
        display: inline;
      }
    }
  </style><g id="light-icon"><svg xmlns="http://www.w3.org/2000/svg" version="1.1" xmlns:xlink="http://www.w3.org/1999/xlink" width="1000" height="1000"><g><g transform="matrix(1.2755102040816326,0,0,1.2755102040816326,0,66.96428571428572)"><svg xmlns="http://www.w3.org/2000/svg" width="784" height="679" viewBox="0 0 784 679" fill="none"><path fill-rule="evenodd" clip-rule="evenodd" d="M503.077 594.089C470.165 583.363 435.049 577.459 397.543 576.558L456.68 678.992H552.093L503.077 594.089ZM348.621 240.409L371.459 200.847L391.992 165.275L586.753 502.631C526.542 475.236 461.243 461.179 391.992 460.45C322.734 461.179 257.442 475.236 197.231 502.631L276.039 366.114L314.76 433.189C340.068 429.292 365.736 427.253 391.639 426.979H391.992H392.345C397.167 427.034 401.98 427.144 406.786 427.316L323.745 283.477L276.039 200.839L228.332 283.477L0 679H95.4128C179.12 587.111 278.743 544.114 392 543.001C505.257 544.122 604.88 587.119 688.587 679H784.008L392 0L323.753 118.209L300.915 157.772L348.621 240.409Z" fill="#1C1917"></path></svg></g></g></svg></g><g id="dark-icon"><svg xmlns="http://www.w3.org/2000/svg" version="1.1" xmlns:xlink="http://www.w3.org/1999/xlink" width="1000" height="1000"><g><g transform="matrix(1.1737089201877935,0,0,1.1737089201877935,0,61.61971830985914)"><svg xmlns="http://www.w3.org/2000/svg" width="852" height="747" viewBox="0 0 852 747" fill="none"><path fill-rule="evenodd" clip-rule="evenodd" d="M537.077 628.089C504.165 617.363 469.049 611.459 431.543 610.558L490.68 712.992H586.093L537.077 628.089ZM382.621 274.409L405.459 234.847L425.992 199.275L620.753 536.631C560.542 509.236 495.243 495.179 425.992 494.45C356.734 495.179 291.442 509.236 231.231 536.631L310.039 400.114L348.76 467.189C374.068 463.292 399.736 461.253 425.639 460.979H425.992H426.345C431.167 461.034 435.98 461.144 440.786 461.316L357.745 317.477L310.039 234.839L262.332 317.477L34 713H129.413C213.12 621.111 312.743 578.114 426 577.001C539.257 578.122 638.88 621.119 722.587 713H818.008L426 34L357.753 152.209L334.915 191.772L382.621 274.409Z" fill="#FEFCE8"></path></svg></g></g></svg></g></svg>